<svg width="375" height="202" viewBox="0 0 375 202" fill="none" xmlns="http://www.w3.org/2000/svg">
<rect width="375" height="217" fill="#F7F8F9"/>
<path d="M21.1484 29.2266C21.1484 26.6562 21.9141 24.5098 23.1992 22.6777H24.8398C23.8965 24.0312 22.9531 26.7793 22.9531 29.2266C22.9531 31.6738 23.8965 34.4219 24.8398 35.7891H23.1992C21.9141 33.9434 21.1484 31.8105 21.1484 29.2266ZM36.5621 28.748V29.9785H31.6539V34.2031H30.15V29.9785H25.2965V28.748H36.5621ZM35.523 22.5547V23.7578H31.818C31.9068 25.1113 33.5338 26.4102 35.9742 26.7246L35.4273 27.9141C33.3219 27.6201 31.6813 26.6562 30.9293 25.3164C30.1773 26.6562 28.5367 27.6201 26.4586 27.9141L25.8844 26.7246C28.3111 26.4102 29.9381 25.1113 30.0543 23.7578H26.3355V22.5547H35.523ZM40.7238 29.2266C40.7238 31.8105 39.9582 33.9434 38.673 35.7891H37.0324C37.9758 34.4219 38.9191 31.6738 38.9191 29.2266C38.9191 26.7793 37.9758 24.0312 37.0324 22.6777H38.673C39.9582 24.5098 40.7238 26.6562 40.7238 29.2266ZM44.8445 22.541C46.4988 22.541 47.6883 23.7031 47.6883 25.3848C47.6883 27.0527 46.4988 28.2285 44.8445 28.2285C43.1902 28.2285 42.0145 27.0527 42.0145 25.3848C42.0145 23.7031 43.1902 22.541 44.8445 22.541ZM44.8445 23.7715C43.9832 23.7715 43.368 24.3867 43.3816 25.3848C43.368 26.3555 43.9832 26.9707 44.8445 26.9707C45.6922 26.9707 46.3074 26.3555 46.3074 25.3848C46.3074 24.3867 45.6922 23.7715 44.8445 23.7715ZM52.5008 21.8711V28.584H51.0516V25.7812H49.8211V28.502H48.3992V22.1035H49.8211V24.5234H51.0516V21.8711H52.5008ZM45.6648 29.1035V30.3477H50.9969V29.1035H52.5008V34.0664H44.1609V29.1035H45.6648ZM45.6648 32.8359H50.9969V31.5508H45.6648V32.8359ZM63.7172 27.4766V28.6797H60.0531V31.5098H64.975V32.7539H53.682V31.5098H58.5492V28.6797H55.0492V22.7734H63.6215V23.9902H56.5668V27.4766H63.7172ZM76.3145 21.8438V34.2031H74.8516V27.8867H73.6895V33.6426H72.2676V22.0898H73.6895V26.6562H74.8516V21.8438H76.3145ZM68.4941 23.334C68.4941 26.1914 68.1523 28.9121 66.498 31.2637L65.3086 30.5664C66.6416 28.748 67.0996 26.8408 67.209 24.5508H65.6914V23.334H68.4941ZM71.4199 23.334C71.4199 26.2598 71.1875 29.4453 69.4238 32.0293L68.2207 31.373C69.6973 29.3018 70.0322 26.9912 70.0938 24.5508H68.877V23.334H71.4199ZM87.4625 21.8574V34.2305H85.9313V21.8574H87.4625ZM79.3551 22.8691V25.959H82.3492V22.8691H83.8531V31.3184H77.8375V22.8691H79.3551ZM79.3551 30.0742H82.3492V27.1484H79.3551V30.0742Z" fill="#111111"/>
<path d="M24.2402 54.7764C24.2402 56.7695 25.5605 58.8135 27.1602 59.6006L26.5508 60.4004C25.3066 59.7466 24.2656 58.4136 23.7705 56.8457C23.2627 58.5151 22.1963 59.937 20.9268 60.6162L20.292 59.8164C21.9424 59.0039 23.25 56.833 23.2627 54.7764V52.7197H24.2402V54.7764ZM29.1914 51.7422V56.3252H31.083V57.1885H29.1914V63.0283H28.2012V51.7422H29.1914ZM34.4777 52.2754C35.9948 52.2627 37.1438 53.145 37.3596 54.4463H39.7209V51.7422H40.7238V57.7979H39.7209V55.2715H37.3723C37.1691 56.6045 36.0075 57.4932 34.4777 57.4932C32.7639 57.4932 31.5451 56.4268 31.5451 54.8779C31.5451 53.3418 32.7639 52.2627 34.4777 52.2754ZM34.4777 53.126C33.3225 53.1133 32.4973 53.8369 32.4973 54.8779C32.4973 55.9062 33.3225 56.6553 34.4777 56.6553C35.6203 56.6553 36.4328 55.9062 36.4328 54.8779C36.4328 53.8369 35.6203 53.1133 34.4777 53.126ZM34.4523 58.3691V59.8037H39.7209V58.3691H40.7238V62.876H33.4494V58.3691H34.4523ZM34.4523 62.0635H39.7209V60.6035H34.4523V62.0635ZM46.099 55.208C46.0863 57.0234 47.3939 59.0166 49.0316 59.791L48.4604 60.5781C47.1908 59.9624 46.1181 58.6167 45.6166 57.0869C45.0961 58.75 43.9599 60.21 42.6967 60.8574L42.0873 60.0703C43.7123 59.2832 45.1088 57.1377 45.1215 55.208V53.7354H42.4936V52.9102H48.6381V53.7354H46.099V55.208ZM51.0121 51.7422V56.3125H52.9037V57.1631H51.0121V63.0283H50.0219V51.7422H51.0121ZM63.484 57.1123V57.9502H53.1881V57.1123H63.484ZM62.2779 55.2207V56.0332H54.4957V52.1992H62.2018V53.0371H55.4732V55.2207H62.2779ZM58.3297 58.9404C60.7545 58.9404 62.2018 59.6768 62.2145 60.9717C62.2018 62.2793 60.7545 63.0029 58.3297 63.0029C55.8922 63.0029 54.4322 62.2793 54.4322 60.9717C54.4322 59.6768 55.8922 58.9404 58.3297 58.9404ZM58.3297 59.7148C56.5143 59.7275 55.4352 60.1846 55.4479 60.9717C55.4352 61.7715 56.5143 62.2158 58.3297 62.2158C60.1197 62.2158 61.2115 61.7715 61.2115 60.9717C61.2115 60.1846 60.1197 59.7275 58.3297 59.7148ZM74.4197 57.9629V58.7881H64.0857V57.9629H68.7576V56.7695H65.4314V54.0146H72.0838V52.8467H65.3934V52.0342H73.0867V54.7637H66.4217V55.9697H73.3279V56.7695H69.7352V57.9629H74.4197ZM73.1502 59.6514V62.9268H72.1473V60.4639H65.241V59.6514H73.1502ZM84.3652 51.7549V60.1084H83.3623V55.7666H80.6963V58.1787H75.5801V52.5039H76.5703V54.5098H79.7188V52.5039H80.6963V54.9287H83.3623V51.7549H84.3652ZM84.6191 61.9492V62.7871H77.0654V59.2832H78.0684V61.9492H84.6191ZM76.5703 57.3535H79.7188V55.2969H76.5703V57.3535ZM95.6691 53.418V54.2432H86.427V53.418H90.5656V51.9326H91.5432V53.418H95.6691ZM96.2531 60.8828V61.708H85.9191V60.8828H90.5656V59.2959C88.5598 59.188 87.341 58.4072 87.3537 57.1377C87.341 55.792 88.7629 55.0049 91.0607 55.0176C93.3332 55.0049 94.7678 55.792 94.7678 57.1377C94.7678 58.4072 93.5363 59.188 91.5432 59.2959V60.8828H96.2531ZM91.0607 55.8047C89.3723 55.8047 88.3439 56.2998 88.3566 57.1377C88.3439 58.001 89.3723 58.4834 91.0607 58.4961C92.7238 58.4834 93.7522 58.001 93.7522 57.1377C93.7522 56.2998 92.7238 55.8047 91.0607 55.8047ZM100.961 62.0762C100.516 62.0762 100.135 61.708 100.148 61.251C100.135 60.8066 100.516 60.4385 100.961 60.4385C101.405 60.4385 101.773 60.8066 101.773 61.251C101.773 61.708 101.405 62.0762 100.961 62.0762ZM100.961 56.9727C100.516 56.9727 100.135 56.6045 100.148 56.1475C100.135 55.7031 100.516 55.335 100.961 55.335C101.405 55.335 101.773 55.7031 101.773 56.1475C101.773 56.6045 101.405 56.9727 100.961 56.9727ZM109.337 52.8086V62H108.182V54.002H108.131L105.896 55.4873V54.332L108.182 52.8086H109.337ZM111.462 62L111.449 61.1621L114.585 57.8613C115.677 56.7061 116.197 56.084 116.197 55.2334C116.197 54.2939 115.398 53.6719 114.369 53.6719C113.278 53.6719 112.579 54.3701 112.579 55.3984H111.5C111.488 53.7734 112.744 52.6816 114.407 52.6816C116.071 52.6816 117.264 53.7988 117.264 55.2334C117.264 56.2617 116.781 57.0615 115.156 58.7373L113.049 60.9082V60.9844H117.429V62H111.462ZM121.941 62.127C120.113 62.127 118.805 61.1494 118.742 59.6895H119.897C119.96 60.5654 120.836 61.1113 121.928 61.1113C123.134 61.1113 124.023 60.4512 124.023 59.499C124.023 58.4961 123.223 57.7852 121.788 57.7852H121.039V56.7822H121.788C122.906 56.7822 123.68 56.1602 123.68 55.208C123.68 54.2939 123.007 53.6719 121.966 53.6719C120.989 53.6719 120.087 54.2178 120.037 55.1191H118.932C118.996 53.6592 120.341 52.6816 121.979 52.6816C123.731 52.6816 124.797 53.8242 124.785 55.1445C124.797 56.1855 124.188 56.96 123.223 57.2266V57.29C124.416 57.4805 125.153 58.3311 125.14 59.499C125.153 61.0098 123.769 62.127 121.941 62.127ZM130.426 57.5693V58.5723H126.402V57.5693H130.426ZM135.014 52.8086V62H133.859V54.002H133.808L131.574 55.4873V54.332L133.859 52.8086H135.014ZM137.14 62L137.127 61.1621L140.263 57.8613C141.354 56.7061 141.875 56.084 141.875 55.2334C141.875 54.2939 141.075 53.6719 140.047 53.6719C138.955 53.6719 138.257 54.3701 138.257 55.3984H137.178C137.165 53.7734 138.422 52.6816 140.085 52.6816C141.748 52.6816 142.941 53.7988 142.941 55.2334C142.941 56.2617 142.459 57.0615 140.834 58.7373L138.727 60.9082V60.9844H143.106V62H137.14ZM148.405 57.5693V58.5723H144.381V57.5693H148.405ZM152.994 52.8086V62H151.838V54.002H151.788L149.553 55.4873V54.332L151.838 52.8086H152.994ZM155.119 62L155.106 61.1621L158.242 57.8613C159.334 56.7061 159.854 56.084 159.854 55.2334C159.854 54.2939 159.054 53.6719 158.026 53.6719C156.934 53.6719 156.236 54.3701 156.236 55.3984H155.157C155.144 53.7734 156.401 52.6816 158.064 52.6816C159.727 52.6816 160.921 53.7988 160.921 55.2334C160.921 56.2617 160.438 57.0615 158.813 58.7373L156.706 60.9082V60.9844H161.086V62H155.119ZM165.597 62.127C163.769 62.127 162.462 61.1494 162.398 59.6895H163.554C163.617 60.5654 164.493 61.1113 165.585 61.1113C166.791 61.1113 167.679 60.4512 167.679 59.499C167.679 58.4961 166.88 57.7852 165.445 57.7852H164.696V56.7822H165.445C166.562 56.7822 167.337 56.1602 167.337 55.208C167.337 54.2939 166.664 53.6719 165.623 53.6719C164.645 53.6719 163.744 54.2178 163.693 55.1191H162.589C162.652 53.6592 163.998 52.6816 165.636 52.6816C167.387 52.6816 168.454 53.8242 168.441 55.1445C168.454 56.1855 167.845 56.96 166.88 57.2266V57.29C168.073 57.4805 168.809 58.3311 168.797 59.499C168.809 61.0098 167.426 62.127 165.597 62.127ZM169.894 60.1211V59.1816L174.032 52.8086H175.441V59.1182H176.724V60.1211H175.441V62H174.35V60.1211H169.894ZM171.125 59.1182H174.35V54.2559H174.235L171.125 59.042V59.1182ZM180.905 62.127C179.242 62.127 177.986 61.0986 177.922 59.6895H179.027C179.115 60.5146 179.915 61.124 180.905 61.124C182.099 61.124 182.962 60.248 182.962 59.0928C182.962 57.8994 182.061 57.0234 180.829 57.0107C180.055 56.998 179.458 57.2393 179.115 57.8359H178.011L178.658 52.8086H183.635V53.8242H179.611L179.268 56.5156H179.357C179.763 56.1982 180.385 55.9824 181.032 55.9824C182.784 55.9824 184.079 57.2773 184.079 59.0674C184.079 60.8447 182.734 62.127 180.905 62.127Z" fill="#767676"/>
<path d="M24.2402 74.7764C24.2402 76.7695 25.5605 78.8135 27.1602 79.6006L26.5508 80.4004C25.3066 79.7466 24.2656 78.4136 23.7705 76.8457C23.2627 78.5151 22.1963 79.937 20.9268 80.6162L20.292 79.8164C21.9424 79.0039 23.25 76.833 23.2627 74.7764V72.7197H24.2402V74.7764ZM29.1914 71.7422V76.3252H31.083V77.1885H29.1914V83.0283H28.2012V71.7422H29.1914ZM34.4777 72.2754C35.9948 72.2627 37.1438 73.145 37.3596 74.4463H39.7209V71.7422H40.7238V77.7979H39.7209V75.2715H37.3723C37.1691 76.6045 36.0075 77.4932 34.4777 77.4932C32.7639 77.4932 31.5451 76.4268 31.5451 74.8779C31.5451 73.3418 32.7639 72.2627 34.4777 72.2754ZM34.4777 73.126C33.3225 73.1133 32.4973 73.8369 32.4973 74.8779C32.4973 75.9062 33.3225 76.6553 34.4777 76.6553C35.6203 76.6553 36.4328 75.9062 36.4328 74.8779C36.4328 73.8369 35.6203 73.1133 34.4777 73.126ZM34.4523 78.3691V79.8037H39.7209V78.3691H40.7238V82.876H33.4494V78.3691H34.4523ZM34.4523 82.0635H39.7209V80.6035H34.4523V82.0635ZM46.099 75.208C46.0863 77.0234 47.3939 79.0166 49.0316 79.791L48.4604 80.5781C47.1908 79.9624 46.1181 78.6167 45.6166 77.0869C45.0961 78.75 43.9599 80.21 42.6967 80.8574L42.0873 80.0703C43.7123 79.2832 45.1088 77.1377 45.1215 75.208V73.7354H42.4936V72.9102H48.6381V73.7354H46.099V75.208ZM51.0121 71.7422V76.3125H52.9037V77.1631H51.0121V83.0283H50.0219V71.7422H51.0121ZM58.8883 73.3418C58.8756 74.8525 60.8941 76.1348 62.8619 76.4268L62.4938 77.2139C60.7291 76.9155 59.0152 75.9761 58.3297 74.6113C57.6441 75.9761 55.9239 76.9155 54.191 77.2139L53.7975 76.4268C55.7525 76.1348 57.7711 74.8525 57.7711 73.3418V73.2656H54.1529V72.4531H62.4938V73.2656H58.8883V73.3418ZM63.4713 78.1787V79.0039H58.7994V83.0283H57.8219V79.0039H53.1881V78.1787H63.4713ZM74.4324 80.7305V81.5557H64.0984V80.7305H68.7195V77.9629H69.6971V80.7305H74.4324ZM69.7225 73.3799C69.7225 75.2715 71.9568 76.9219 73.9246 77.2646L73.4803 78.0898C71.7601 77.7407 69.9446 76.5728 69.2146 74.9414C68.472 76.5664 66.6692 77.7407 64.949 78.0898L64.5047 77.2646C66.4725 76.9219 68.6814 75.2715 68.6814 73.3799V72.5166H69.7225V73.3799ZM79.1398 82.0762C78.6955 82.0762 78.3146 81.708 78.3273 81.251C78.3146 80.8066 78.6955 80.4385 79.1398 80.4385C79.5842 80.4385 79.9523 80.8066 79.9523 81.251C79.9523 81.708 79.5842 82.0762 79.1398 82.0762ZM79.1398 76.9727C78.6955 76.9727 78.3146 76.6045 78.3273 76.1475C78.3146 75.7031 78.6955 75.335 79.1398 75.335C79.5842 75.335 79.9523 75.7031 79.9523 76.1475C79.9523 76.6045 79.5842 76.9727 79.1398 76.9727ZM87.8336 74.7764C87.8336 76.8203 89.1412 78.877 90.7789 79.626L90.1822 80.4385C88.9 79.7783 87.8399 78.4263 87.3385 76.8203C86.837 78.5088 85.777 79.9561 84.4947 80.6416L83.8473 79.8418C85.4977 79.0293 86.818 76.8584 86.818 74.7764V72.7197H87.8336V74.7764ZM93.2164 71.7422V83.0537H92.2262V76.4141H89.5475V75.6016H92.2262V71.7422H93.2164ZM99.9119 71.8818C102.426 71.8818 103.898 72.5801 103.898 73.8369C103.898 75.1064 102.426 75.792 99.9119 75.8047C97.3982 75.792 95.9129 75.1064 95.9129 73.8369C95.9129 72.5801 97.3982 71.8818 99.9119 71.8818ZM99.9119 72.6436C98.033 72.6562 96.9412 73.0879 96.9539 73.8369C96.9412 74.6113 98.033 75.0303 99.9119 75.043C101.778 75.0303 102.883 74.6113 102.883 73.8369C102.883 73.0879 101.778 72.6562 99.9119 72.6436ZM105.054 76.5537V77.3535H100.394V78.4199H103.733V80.9463H97.0301V82.1143H104.076V82.9014H96.0398V80.21H102.756V79.1816H96.0145V78.4199H99.4041V77.3535H94.7703V76.5537H105.054ZM115.964 77.7217V78.5215H105.668V77.7217H115.964ZM114.631 79.626V83.0283H113.615V80.4258H106.823V79.626H114.631ZM114.745 75.8555V76.6299H107.039V72.0469H114.682V72.8467H108.042V73.9258H114.377V74.7002H108.042V75.8555H114.745ZM125.935 71.7422V77.6455H124.945V76.1982H122.279V77.1885H117.162V72.2754H118.153V73.9004H121.301V72.2754H122.279V73.3672H124.945V71.7422H125.935ZM125.935 78.1914V80.8447H119.638V82.0762H126.366V82.876H118.648V80.083H124.945V78.9912H118.622V78.1914H125.935ZM118.153 76.376H121.301V74.6875H118.153V76.376ZM122.279 75.4111H124.945V74.1416H122.279V75.4111ZM131.513 74.7764C131.5 76.833 132.91 78.915 134.573 79.6641L133.963 80.4512C132.681 79.8228 131.57 78.4961 131.031 76.8838C130.504 78.5913 129.393 80.0132 128.073 80.6797L127.438 79.8418C129.114 79.0674 130.51 76.9219 130.523 74.7764V72.7197H131.513V74.7764ZM136.807 71.7422V83.0537H135.804V71.7422H136.807ZM150.173 71.7422V74.6875H151.874V75.5127H150.173V78.5215H149.182V71.7422H150.173ZM147.1 72.5801C147.1 75.4492 145.069 77.5693 141.781 78.5342L141.362 77.7217C144.085 76.9346 145.825 75.3667 146.034 73.4053H141.857V72.5801H147.1ZM146.605 78.6484C148.878 78.6484 150.3 79.4736 150.3 80.8193C150.3 82.1904 148.878 83.0029 146.605 83.0029C144.358 83.0029 142.898 82.1904 142.911 80.8193C142.898 79.4736 144.358 78.6484 146.605 78.6484ZM146.605 79.4482C144.955 79.4355 143.888 79.9688 143.901 80.8193C143.888 81.6699 144.955 82.2031 146.605 82.2031C148.268 82.2031 149.335 81.6699 149.335 80.8193C149.335 79.9688 148.268 79.4355 146.605 79.4482ZM161.083 71.7549V74.3447H162.797V75.1826H161.083V78.1279H160.093V71.7549H161.083ZM161.083 78.75V82.876H153.936V78.75H161.083ZM154.913 79.5371V82.0635H160.118V79.5371H154.913ZM153.809 72.3262V76.4268C155.415 76.4204 157.071 76.2935 158.899 75.9189L159.026 76.7568C157.109 77.1377 155.408 77.2646 153.707 77.2646H152.806V72.3262H153.809ZM172.095 72.4785V73.4688C172.095 74.5415 172.095 75.7031 171.778 77.3281H173.453V78.1533H168.794V83.0537H167.791V78.1533H163.17V77.3281H170.762C171.105 75.7031 171.105 74.5161 171.105 73.4688V73.3037H164.465V72.4785H172.095ZM180.814 73.4307C180.801 74.9922 181.969 76.4395 183.632 76.998L183.074 77.7852C181.842 77.3218 180.865 76.3887 180.37 75.1953C179.894 76.5537 178.865 77.6011 177.513 78.1152L176.98 77.3281C178.694 76.6934 179.824 75.1826 179.837 73.4561V72.3262H180.814V73.4307ZM185.841 71.7422V74.5605H187.543V75.3984H185.841V78.3564H184.851V71.7422H185.841ZM185.841 78.877V82.876H178.719V78.877H185.841ZM179.697 79.6895V82.0635H184.851V79.6895H179.697ZM191.813 73.5195C191.801 75.1318 192.943 76.5537 194.606 77.1123L194.048 77.8867C192.804 77.417 191.826 76.5029 191.344 75.3096C190.855 76.6616 189.82 77.7153 188.462 78.2295L187.916 77.417C189.655 76.8076 190.81 75.3096 190.823 73.5576V72.3896H191.813V73.5195ZM197.285 71.7422V78.4326H196.282V74.9922H193.768V74.167H196.282V71.7422H197.285ZM193.54 78.7627C195.888 78.7627 197.323 79.5371 197.323 80.8955C197.323 82.2412 195.888 83.0029 193.54 83.0029C191.191 83.0029 189.757 82.2412 189.757 80.8955C189.757 79.5371 191.191 78.7627 193.54 78.7627ZM193.54 79.5498C191.813 79.5498 190.734 80.0576 190.747 80.8955C190.734 81.708 191.813 82.2031 193.54 82.2031C195.266 82.2031 196.333 81.708 196.333 80.8955C196.333 80.0576 195.266 79.5498 193.54 79.5498ZM209.135 77.3281V78.1279H198.839V77.3281H203.498V76.0078H200.146V72.2754H207.853V73.0752H201.124V75.1953H207.929V76.0078H204.463V77.3281H209.135ZM203.98 78.9531C206.405 78.9531 207.853 79.6895 207.865 80.9844C207.853 82.292 206.405 83.0156 203.98 83.0283C201.543 83.0156 200.083 82.292 200.083 80.9844C200.083 79.6895 201.543 78.9531 203.98 78.9531ZM203.98 79.7402C202.165 79.7402 201.086 80.21 201.099 80.9844C201.086 81.7715 202.165 82.2285 203.98 82.2285C205.771 82.2285 206.862 81.7715 206.862 80.9844C206.862 80.21 205.771 79.7402 203.98 79.7402ZM216.546 73.875C216.546 75.4492 217.689 76.9346 219.339 77.5312L218.781 78.3057C217.543 77.8105 216.559 76.8267 216.077 75.6016C215.594 76.9663 214.566 78.0518 213.233 78.585L212.7 77.7725C214.388 77.1504 215.556 75.5762 215.569 73.8369V72.4404H216.546V73.875ZM222.043 71.7549V80.21H221.04V75.2461H218.527V74.4082H221.04V71.7549H222.043ZM222.297 81.9492V82.7871H214.744V79.2451H215.746V81.9492H222.297ZM233.919 77.7217V78.5088H223.585V77.7217H233.919ZM232.586 72.0977V74.7764H225.921V75.9443H232.827V76.7441H224.93V74.04H231.583V72.8975H224.892V72.0977H232.586ZM228.739 79.3848C231.214 79.3848 232.662 80.0195 232.662 81.2129C232.662 82.3809 231.214 83.0156 228.739 83.0283C226.225 83.0156 224.791 82.3809 224.803 81.2129C224.791 80.0195 226.225 79.3848 228.739 79.3848ZM228.739 80.1338C226.873 80.1338 225.806 80.5273 225.819 81.2129C225.806 81.8857 226.873 82.2666 228.739 82.2666C230.58 82.2666 231.646 81.8857 231.646 81.2129C231.646 80.5273 230.58 80.1338 228.739 80.1338ZM244.842 80.7939V81.6318H234.508V80.7939H239.154V78.6611H235.803V75.1826H242.556V73.4053H235.777V72.5801H243.534V75.9951H236.793V77.8359H243.801V78.6611H240.132V80.7939H244.842ZM252.012 72.8086V82H250.857V74.002H250.806L248.571 75.4873V74.332L250.857 72.8086H252.012ZM254.137 82L254.124 81.1621L257.26 77.8613C258.352 76.7061 258.872 76.084 258.872 75.2334C258.872 74.2939 258.073 73.6719 257.044 73.6719C255.953 73.6719 255.254 74.3701 255.254 75.3984H254.175C254.163 73.7734 255.419 72.6816 257.082 72.6816C258.746 72.6816 259.939 73.7988 259.939 75.2334C259.939 76.2617 259.456 77.0615 257.831 78.7373L255.724 80.9082V80.9844H260.104V82H254.137ZM264.616 82.127C262.788 82.127 261.48 81.1494 261.417 79.6895H262.572C262.635 80.5654 263.511 81.1113 264.603 81.1113C265.809 81.1113 266.698 80.4512 266.698 79.499C266.698 78.4961 265.898 77.7852 264.463 77.7852H263.714V76.7822H264.463C265.581 76.7822 266.355 76.1602 266.355 75.208C266.355 74.2939 265.682 73.6719 264.641 73.6719C263.664 73.6719 262.762 74.2178 262.712 75.1191H261.607C261.671 73.6592 263.016 72.6816 264.654 72.6816C266.406 72.6816 267.472 73.8242 267.46 75.1445C267.472 76.1855 266.863 76.96 265.898 77.2266V77.29C267.091 77.4805 267.828 78.3311 267.815 79.499C267.828 81.0098 266.444 82.127 264.616 82.127ZM273.101 77.5693V78.5723H269.077V77.5693H273.101ZM274.211 80.1211V79.1816L278.35 72.8086H279.759V79.1182H281.041V80.1211H279.759V82H278.667V80.1211H274.211ZM275.442 79.1182H278.667V74.2559H278.553L275.442 79.042V79.1182ZM285.223 82.127C283.56 82.127 282.303 81.0986 282.239 79.6895H283.344C283.433 80.5146 284.233 81.124 285.223 81.124C286.416 81.124 287.279 80.248 287.279 79.0928C287.279 77.8994 286.378 77.0234 285.147 77.0107C284.372 76.998 283.776 77.2393 283.433 77.8359H282.328L282.976 72.8086H287.952V73.8242H283.928L283.585 76.5156H283.674C284.08 76.1982 284.702 75.9824 285.35 75.9824C287.102 75.9824 288.397 77.2773 288.397 79.0674C288.397 80.8447 287.051 82.127 285.223 82.127ZM295.796 82.127C294.196 82.1016 292.444 81.1621 292.444 77.7598C292.444 74.5098 293.777 72.6816 295.935 72.6816C297.547 72.6816 298.677 73.6719 298.919 75.1191H297.789C297.573 74.3066 296.963 73.6973 295.935 73.6973C294.424 73.6973 293.523 74.9922 293.523 77.2012H293.637C294.171 76.4395 295.008 75.9824 295.999 75.9824C297.636 75.9824 298.995 77.252 298.995 79.0293C298.995 80.7559 297.725 82.1396 295.796 82.127ZM295.796 81.124C296.989 81.124 297.878 80.1846 297.89 79.042C297.878 77.9121 297.027 76.9854 295.821 76.9854C294.615 76.9854 293.688 77.9629 293.675 79.0547C293.675 80.1338 294.564 81.124 295.796 81.124ZM310.121 77.4805V78.3057H299.838V77.4805H310.121ZM305.462 71.7168V72.8467H309.08V73.6592H305.525C305.608 74.9097 307.398 75.7729 309.512 75.9697L309.207 76.7441C307.334 76.5474 305.665 75.8745 304.979 74.7383C304.287 75.8745 302.612 76.5474 300.752 76.7441L300.434 75.9697C302.548 75.7729 304.338 74.9097 304.433 73.6592H300.904V72.8467H304.484V71.7168H305.462ZM304.979 79.2705C307.43 79.2705 308.851 79.9307 308.864 81.1367C308.851 82.3555 307.43 83.0029 304.979 83.0029C302.529 83.0029 301.082 82.3555 301.082 81.1367C301.082 79.9307 302.529 79.2705 304.979 79.2705ZM304.979 80.0195C303.151 80.0195 302.085 80.4258 302.097 81.1367C302.085 81.8477 303.151 82.2412 304.979 82.2285C306.782 82.2412 307.861 81.8477 307.861 81.1367C307.861 80.4258 306.782 80.0195 304.979 80.0195Z" fill="#767676"/>
<path d="M29.8135 91.7549V100.096H28.8105V97.0488H25.8906C25.3701 97.7153 24.5322 98.1152 23.5674 98.1152C21.8789 98.1152 20.6348 96.9473 20.6348 95.2969C20.6348 93.6465 21.8789 92.4785 23.5674 92.4658C24.5259 92.4722 25.3447 92.8657 25.8779 93.5195H28.8105V91.7549H29.8135ZM30.1309 101.949V102.787H22.5645V99.2197H23.5674V101.949H30.1309ZM23.5674 93.3545C22.4121 93.3672 21.5869 94.167 21.5869 95.2969C21.5869 96.4268 22.4121 97.2266 23.5674 97.2266C24.6719 97.2266 25.5225 96.4268 25.5225 95.2969C25.5225 94.167 24.6719 93.3672 23.5674 93.3545ZM26.335 94.3447C26.4302 94.6367 26.4873 94.9541 26.4873 95.2969C26.4873 95.627 26.4302 95.938 26.335 96.2236H28.8105V94.3447H26.335ZM36.966 92.4277V95.5381H32.8527V97.1758C34.8586 97.1758 36.3122 97.106 38.0705 96.8076L38.1721 97.6328C36.3566 97.9375 34.8459 98.001 32.7512 98.001H31.8752V94.751H35.9885V93.2402H31.8498V92.4277H36.966ZM40.1906 91.7549V94.6494H41.9045V95.4873H40.1906V98.6104H39.2004V91.7549H40.1906ZM40.1906 99.207V103.028H39.2004V100.02H32.802V99.207H40.1906ZM51.6342 91.7422V103.054H50.6313V97.1123H48.1557V96.2871H50.6313V91.7422H51.6342ZM46.1752 95.4238C46.1752 97.29 47.4447 99.1182 49.1205 99.8672L48.5492 100.642C47.267 100.051 46.2006 98.8198 45.7055 97.3281C45.2104 98.9023 44.1566 100.223 42.8744 100.845L42.3031 100.07C43.9535 99.2959 45.1977 97.3662 45.1977 95.4238V94.5225H42.6078V93.71H45.1977V91.958H46.1879V93.71H48.7396V94.5225H46.1752V95.4238ZM57.3191 102.076C56.8748 102.076 56.4939 101.708 56.5066 101.251C56.4939 100.807 56.8748 100.438 57.3191 100.438C57.7635 100.438 58.1316 100.807 58.1316 101.251C58.1316 101.708 57.7635 102.076 57.3191 102.076ZM57.3191 96.9727C56.8748 96.9727 56.4939 96.6045 56.5066 96.1475C56.4939 95.7031 56.8748 95.335 57.3191 95.335C57.7635 95.335 58.1316 95.7031 58.1316 96.1475C58.1316 96.6045 57.7635 96.9727 57.3191 96.9727ZM65.4543 102.127C63.4104 102.127 62.2424 100.413 62.2424 97.4043C62.2424 94.4209 63.4357 92.6816 65.4543 92.6816C67.4729 92.6816 68.6662 94.4209 68.6662 97.4043C68.6662 100.413 67.4855 102.127 65.4543 102.127ZM65.4543 101.111C66.7746 101.111 67.549 99.7783 67.549 97.4043C67.549 95.0303 66.7746 93.6719 65.4543 93.6719C64.134 93.6719 63.3469 95.0303 63.3469 97.4043C63.3469 99.7783 64.1213 101.111 65.4543 101.111ZM73.1146 92.8086V102H71.9594V94.002H71.9086L69.6742 95.4873V94.332L71.9594 92.8086H73.1146ZM78.2486 102.127C76.2047 102.127 75.0367 100.413 75.0367 97.4043C75.0367 94.4209 76.2301 92.6816 78.2486 92.6816C80.2672 92.6816 81.4605 94.4209 81.4605 97.4043C81.4605 100.413 80.2799 102.127 78.2486 102.127ZM78.2486 101.111C79.5689 101.111 80.3434 99.7783 80.3434 97.4043C80.3434 95.0303 79.5689 93.6719 78.2486 93.6719C76.9283 93.6719 76.1412 95.0303 76.1412 97.4043C76.1412 99.7783 76.9156 101.111 78.2486 101.111ZM86.6199 97.5693V98.5723H82.5955V97.5693H86.6199ZM91.208 92.8086V102H90.0527V94.002H90.002L87.7676 95.4873V94.332L90.0527 92.8086H91.208ZM93.3332 102L93.3205 101.162L96.4563 97.8613C97.548 96.7061 98.0686 96.084 98.0686 95.2334C98.0686 94.2939 97.2688 93.6719 96.2404 93.6719C95.1486 93.6719 94.4504 94.3701 94.4504 95.3984H93.3713C93.3586 93.7734 94.6154 92.6816 96.2785 92.6816C97.9416 92.6816 99.135 93.7988 99.135 95.2334C99.135 96.2617 98.6525 97.0615 97.0275 98.7373L94.9201 100.908V100.984H99.3V102H93.3332ZM103.812 102.127C101.984 102.127 100.676 101.149 100.613 99.6895H101.768C101.831 100.565 102.707 101.111 103.799 101.111C105.005 101.111 105.894 100.451 105.894 99.499C105.894 98.4961 105.094 97.7852 103.66 97.7852H102.911V96.7822H103.66C104.777 96.7822 105.551 96.1602 105.551 95.208C105.551 94.2939 104.878 93.6719 103.837 93.6719C102.86 93.6719 101.958 94.2178 101.908 95.1191H100.803C100.867 93.6592 102.212 92.6816 103.85 92.6816C105.602 92.6816 106.668 93.8242 106.656 95.1445C106.668 96.1855 106.059 96.96 105.094 97.2266V97.29C106.287 97.4805 107.024 98.3311 107.011 99.499C107.024 101.01 105.64 102.127 103.812 102.127ZM108.108 100.121V99.1816L112.247 92.8086H113.656V99.1182H114.938V100.121H113.656V102H112.564V100.121H108.108ZM109.339 99.1182H112.564V94.2559H112.45L109.339 99.042V99.1182ZM120.085 97.5693V98.5723H116.06V97.5693H120.085ZM124.419 102.127C122.756 102.127 121.499 101.099 121.436 99.6895H122.54C122.629 100.515 123.429 101.124 124.419 101.124C125.612 101.124 126.476 100.248 126.476 99.0928C126.476 97.8994 125.574 97.0234 124.343 97.0107C123.568 96.998 122.972 97.2393 122.629 97.8359H121.524L122.172 92.8086H127.148V93.8242H123.124L122.781 96.5156H122.87C123.276 96.1982 123.898 95.9824 124.546 95.9824C126.298 95.9824 127.593 97.2773 127.593 99.0674C127.593 100.845 126.247 102.127 124.419 102.127ZM132.054 102.127C130.454 102.102 128.702 101.162 128.702 97.7598C128.702 94.5098 130.035 92.6816 132.194 92.6816C133.806 92.6816 134.936 93.6719 135.177 95.1191H134.047C133.831 94.3066 133.222 93.6973 132.194 93.6973C130.683 93.6973 129.781 94.9922 129.781 97.2012H129.896C130.429 96.4395 131.267 95.9824 132.257 95.9824C133.895 95.9824 135.253 97.252 135.253 99.0293C135.253 100.756 133.984 102.14 132.054 102.127ZM132.054 101.124C133.247 101.124 134.136 100.185 134.149 99.042C134.136 97.9121 133.285 96.9854 132.079 96.9854C130.873 96.9854 129.946 97.9629 129.934 99.0547C129.934 100.134 130.822 101.124 132.054 101.124ZM136.794 102L141.009 93.8877V93.8242H136.147V92.8086H142.19V93.875L137.988 102H136.794ZM146.245 102.127C144.315 102.127 142.969 101.061 142.982 99.5625C142.969 98.3691 143.795 97.3916 144.848 97.2266V97.1758C143.934 96.96 143.338 96.1221 143.338 95.1191C143.338 93.71 144.569 92.6816 146.245 92.6816C147.921 92.6816 149.152 93.71 149.165 95.1191C149.152 96.1221 148.543 96.96 147.641 97.1758V97.2266C148.682 97.3916 149.507 98.3691 149.52 99.5625C149.507 101.061 148.162 102.127 146.245 102.127ZM146.245 101.124C147.565 101.124 148.378 100.464 148.378 99.499C148.378 98.4834 147.476 97.7344 146.245 97.7344C145.013 97.7344 144.099 98.4834 144.125 99.499C144.099 100.464 144.924 101.124 146.245 101.124ZM146.245 96.7695C147.286 96.7695 148.047 96.1348 148.047 95.208C148.047 94.2939 147.324 93.6719 146.245 93.6719C145.153 93.6719 144.442 94.2939 144.442 95.208C144.442 96.1348 145.191 96.7695 146.245 96.7695Z" fill="#767676"/>
<path d="M29.7627 111.742V123.054H28.7598V111.742H29.7627ZM23.7578 112.618C25.4336 112.631 26.6396 114.154 26.6396 116.554C26.6396 118.953 25.4336 120.477 23.7578 120.477C22.0693 120.477 20.876 118.953 20.876 116.554C20.876 114.154 22.0693 112.631 23.7578 112.618ZM23.7578 113.507C22.6279 113.52 21.8408 114.713 21.8408 116.554C21.8408 118.395 22.6279 119.588 23.7578 119.588C24.8877 119.588 25.6748 118.395 25.6748 116.554C25.6748 114.713 24.8877 113.52 23.7578 113.507ZM36.1027 113.062V116.008H37.8166V111.983H38.7688V122.457H37.8166V116.833H36.1027V119.994H31.7863V113.062H36.1027ZM32.7258 113.862V119.194H35.1633V113.862H32.7258ZM41.0412 111.742V123.028H40.0764V111.742H41.0412ZM45.477 112.161C47.1654 112.174 48.3969 113.189 48.3969 114.662C48.3969 116.135 47.1654 117.15 45.477 117.15C43.7631 117.15 42.5443 116.135 42.5443 114.662C42.5443 113.189 43.7631 112.174 45.477 112.161ZM45.477 112.999C44.3471 112.999 43.5092 113.685 43.5219 114.662C43.5092 115.652 44.3471 116.338 45.477 116.338C46.5941 116.338 47.432 115.652 47.432 114.662C47.432 113.685 46.5941 112.999 45.477 112.999ZM51.5961 111.742V117.544H50.6059V111.742H51.5961ZM51.5961 118.09V120.807H45.2611V122.076H52.0023V122.876H44.2836V120.058H50.6059V118.89H44.2582V118.09H51.5961ZM57.3191 122.076C56.8748 122.076 56.4939 121.708 56.5066 121.251C56.4939 120.807 56.8748 120.438 57.3191 120.438C57.7635 120.438 58.1316 120.807 58.1316 121.251C58.1316 121.708 57.7635 122.076 57.3191 122.076ZM57.3191 116.973C56.8748 116.973 56.4939 116.604 56.5066 116.147C56.4939 115.703 56.8748 115.335 57.3191 115.335C57.7635 115.335 58.1316 115.703 58.1316 116.147C58.1316 116.604 57.7635 116.973 57.3191 116.973ZM63.55 112.809V122H62.4582V112.809H63.55ZM64.9643 122V115.106H66.0561V122H64.9643ZM65.5102 113.964C65.0912 113.964 64.7484 113.646 64.7484 113.24C64.7484 112.834 65.0912 112.517 65.5102 112.517C65.9291 112.517 66.2846 112.834 66.2846 113.24C66.2846 113.646 65.9291 113.964 65.5102 113.964ZM68.5621 112.809V122H67.4703V112.809H68.5621ZM69.9764 122V115.106H71.0682V122H69.9764ZM70.5223 113.964C70.1033 113.964 69.7605 113.646 69.7605 113.24C69.7605 112.834 70.1033 112.517 70.5223 112.517C70.9412 112.517 71.2967 112.834 71.2967 113.24C71.2967 113.646 70.9412 113.964 70.5223 113.964ZM73.5742 112.809V122H72.4824V112.809H73.5742ZM74.9885 122V115.106H76.0803V122H74.9885ZM75.5344 113.964C75.1154 113.964 74.7727 113.646 74.7727 113.24C74.7727 112.834 75.1154 112.517 75.5344 112.517C75.9533 112.517 76.3088 112.834 76.3088 113.24C76.3088 113.646 75.9533 113.964 75.5344 113.964ZM78.5863 112.809V122H77.4945V112.809H78.5863ZM80.0006 122V115.106H81.0924V122H80.0006ZM80.5465 113.964C80.1275 113.964 79.7848 113.646 79.7848 113.24C79.7848 112.834 80.1275 112.517 80.5465 112.517C80.9654 112.517 81.3209 112.834 81.3209 113.24C81.3209 113.646 80.9654 113.964 80.5465 113.964ZM83.5984 112.809V122H82.5066V112.809H83.5984ZM85.0127 122V115.106H86.1045V122H85.0127ZM85.5586 113.964C85.1396 113.964 84.7969 113.646 84.7969 113.24C84.7969 112.834 85.1396 112.517 85.5586 112.517C85.9775 112.517 86.333 112.834 86.333 113.24C86.333 113.646 85.9775 113.964 85.5586 113.964ZM90.7561 112.809V122H89.6008V114.002H89.55L87.3156 115.487V114.332L89.6008 112.809H90.7561ZM96.1312 112.809V122H94.976V114.002H94.9252L92.6908 115.487V114.332L94.976 112.809H96.1312ZM101.506 112.809V122H100.351V114.002H100.3L98.066 115.487V114.332L100.351 112.809H101.506ZM106.882 112.809V122H105.726V114.002H105.676L103.441 115.487V114.332L105.726 112.809H106.882ZM112.257 112.809V122H111.102V114.002H111.051L108.816 115.487V114.332L111.102 112.809H112.257ZM117.632 112.809V122H116.477V114.002H116.426L114.192 115.487V114.332L116.477 112.809H117.632ZM123.007 112.809V122H121.852V114.002H121.801L119.567 115.487V114.332L121.852 112.809H123.007ZM128.382 112.809V122H127.227V114.002H127.176L124.942 115.487V114.332L127.227 112.809H128.382ZM135.065 120.794C133.796 120.794 132.869 119.766 132.869 118.115C132.869 116.478 133.808 115.449 135.078 115.449C135.992 115.449 136.373 116.033 136.525 116.325H136.589V115.551H137.554V119.258C137.566 119.753 137.782 119.994 138.188 119.994C138.975 119.994 139.496 119.08 139.509 117.76C139.521 115.36 137.782 113.799 135.357 113.799C132.844 113.812 131.219 115.754 131.219 118.115C131.219 120.692 132.628 122.47 135.306 122.444C136.195 122.432 136.779 122.381 137.554 122.165V123.028C136.893 123.206 136.144 123.32 135.306 123.32C132.209 123.32 130.304 121.34 130.304 118.115C130.292 115.119 132.399 112.923 135.357 112.923C138.391 112.923 140.435 114.992 140.423 117.722C140.423 119.689 139.407 120.845 138.125 120.845C137.325 120.845 136.722 120.394 136.678 119.804H136.589C136.436 120.083 136.055 120.794 135.065 120.794ZM135.23 119.867C136.132 119.867 136.589 119.156 136.601 118.103C136.589 117.074 136.144 116.376 135.23 116.376C134.342 116.376 133.859 117.138 133.859 118.103C133.859 119.093 134.354 119.867 135.23 119.867ZM144.427 124.729C142.764 124.729 141.634 124.006 141.507 122.724H142.649C142.802 123.422 143.449 123.777 144.427 123.777C145.607 123.777 146.331 123.27 146.331 122.127V120.73H146.242C146.014 121.111 145.569 121.898 144.236 121.898C142.561 121.898 141.304 120.629 141.304 118.458C141.304 116.338 142.522 115.018 144.249 115.018C145.582 115.018 146.014 115.83 146.268 116.198H146.356V115.106H147.423V122.19C147.423 123.968 146.103 124.729 144.427 124.729ZM144.389 120.921C145.646 120.921 146.356 120.02 146.356 118.496C146.356 117.023 145.671 115.995 144.389 115.995C143.068 115.995 142.408 117.112 142.408 118.496C142.408 119.931 143.081 120.921 144.389 120.921ZM148.837 122V115.106H149.891V116.186H149.98C150.272 115.449 150.932 115.018 151.833 115.018C152.735 115.018 153.344 115.449 153.674 116.186H153.75C154.106 115.475 154.829 115.018 155.82 115.018C157.051 115.018 157.927 115.767 157.927 117.392V122H156.835V117.404C156.835 116.389 156.188 115.995 155.439 115.995C154.474 115.995 153.928 116.643 153.928 117.519V122H152.823V117.29C152.823 116.516 152.265 115.995 151.478 115.995C150.653 115.995 149.929 116.693 149.929 117.696V122H148.837ZM159.024 120.045C159.024 118.458 160.42 118.103 161.614 118.014C162.052 117.982 163.169 117.925 163.48 117.912V117.354C163.48 116.478 162.959 115.97 161.918 115.97C161.042 115.97 160.522 116.376 160.37 116.896H159.227C159.367 115.792 160.446 115.018 161.969 115.018C162.871 115.018 164.559 115.284 164.559 117.455V122H163.48V121.061H163.429C163.201 121.53 162.566 122.165 161.372 122.165C160.065 122.165 159.024 121.391 159.024 120.045ZM160.116 120.096C160.116 120.819 160.725 121.188 161.563 121.188C162.794 121.188 163.48 120.362 163.48 119.499V118.801C163.156 118.826 162.071 118.909 161.741 118.928C160.75 118.991 160.116 119.347 160.116 120.096ZM165.986 122V115.106H167.078V122H165.986ZM166.532 113.964C166.113 113.964 165.77 113.646 165.77 113.24C165.77 112.834 166.113 112.517 166.532 112.517C166.951 112.517 167.306 112.834 167.306 113.24C167.306 113.646 166.951 113.964 166.532 113.964ZM169.584 112.809V122H168.492V112.809H169.584ZM171.772 122.076C171.328 122.076 170.947 121.708 170.96 121.251C170.947 120.807 171.328 120.438 171.772 120.438C172.217 120.438 172.585 120.807 172.585 121.251C172.585 121.708 172.217 122.076 171.772 122.076ZM176.792 122.14C174.837 122.14 173.644 120.654 173.644 118.585C173.644 116.49 174.888 115.018 176.767 115.018C178.239 115.018 179.331 115.881 179.509 117.188H178.417C178.265 116.554 177.706 115.982 176.792 115.982C175.561 115.982 174.736 116.998 174.736 118.547C174.736 120.146 175.535 121.162 176.792 121.162C177.605 121.162 178.227 120.73 178.417 119.969H179.509C179.331 121.2 178.328 122.14 176.792 122.14ZM183.348 122.14C181.469 122.14 180.2 120.73 180.2 118.585C180.2 116.439 181.469 115.018 183.348 115.018C185.214 115.018 186.471 116.439 186.471 118.585C186.471 120.73 185.214 122.14 183.348 122.14ZM183.348 121.175C184.732 121.175 185.379 119.956 185.379 118.585C185.379 117.214 184.732 115.982 183.348 115.982C181.939 115.982 181.291 117.214 181.291 118.585C181.291 119.956 181.939 121.175 183.348 121.175ZM187.581 122V115.106H188.634V116.186H188.723C189.015 115.449 189.675 115.018 190.577 115.018C191.478 115.018 192.087 115.449 192.418 116.186H192.494C192.849 115.475 193.573 115.018 194.563 115.018C195.795 115.018 196.671 115.767 196.671 117.392V122H195.579V117.404C195.579 116.389 194.931 115.995 194.182 115.995C193.217 115.995 192.671 116.643 192.671 117.519V122H191.567V117.29C191.567 116.516 191.008 115.995 190.221 115.995C189.396 115.995 188.672 116.693 188.672 117.696V122H187.581Z" fill="#767676"/>
<path d="M29.9277 139.653V151.143H28.5059V139.653H29.9277ZM23.7451 140.491C25.4717 140.491 26.7285 142.065 26.7412 144.541C26.7285 147.042 25.4717 148.604 23.7451 148.604C22.0059 148.604 20.749 147.042 20.749 144.541C20.749 142.065 22.0059 140.491 23.7451 140.491ZM23.7451 141.761C22.7676 141.761 22.1074 142.789 22.1074 144.541C22.1074 146.306 22.7676 147.334 23.7451 147.334C24.71 147.334 25.3701 146.306 25.3701 144.541C25.3701 142.789 24.71 141.761 23.7451 141.761ZM41.7521 145.176V146.306H31.2912V145.176H33.7287V143.716C32.8654 143.354 32.3703 142.776 32.3703 142.027C32.3703 140.656 33.9826 139.844 36.509 139.844C39.0354 139.844 40.635 140.656 40.6477 142.027C40.6413 142.783 40.1462 143.36 39.2766 143.716V145.176H41.7521ZM36.509 147.004C38.9846 146.991 40.4699 147.728 40.4826 149.048C40.4699 150.381 38.9846 151.104 36.509 151.104C34.008 151.104 32.51 150.381 32.51 149.048C32.51 147.728 34.008 146.991 36.509 147.004ZM36.509 148.07C34.8332 148.07 33.9318 148.4 33.9445 149.048C33.9318 149.695 34.8332 150.038 36.509 150.038C38.1467 150.038 39.0607 149.695 39.0734 149.048C39.0607 148.4 38.1467 148.07 36.509 148.07ZM36.509 140.936C34.8078 140.936 33.8303 141.316 33.843 142.027C33.8303 142.726 34.8078 143.094 36.509 143.094C38.1975 143.094 39.1877 142.726 39.1877 142.027C39.1877 141.316 38.1975 140.936 36.509 140.936ZM35.1506 145.176H37.8674V144.084C37.4548 144.141 36.9978 144.173 36.509 144.173C36.0202 144.173 35.5632 144.141 35.1506 144.084V145.176ZM52.8148 141.253V142.396H51.2533V143.716H52.8148V144.896H51.2533V146.433H49.8441V139.653H51.2533V141.253H52.8148ZM51.2533 146.928V151.13H49.8441V148.07H43.6107V146.928H51.2533ZM45.4262 140.313C47.1908 140.301 48.5111 141.456 48.5238 143.068C48.5111 144.706 47.1908 145.849 45.4262 145.849C43.6488 145.849 42.3158 144.706 42.3285 143.068C42.3158 141.456 43.6488 140.301 45.4262 140.313ZM45.4262 141.507C44.4359 141.52 43.6996 142.116 43.7123 143.068C43.6996 144.046 44.4359 144.655 45.4262 144.643C46.4037 144.655 47.14 144.046 47.14 143.068C47.14 142.116 46.4037 141.52 45.4262 141.507ZM59.523 140.504V141.189C59.5104 141.977 59.5104 143.106 59.2438 144.566L57.8473 144.439C58.0694 143.252 58.1139 142.376 58.1393 141.672H53.6705V140.504H59.523ZM56.6285 143.119V145.404C57.8155 145.36 59.0343 145.271 60.1451 145.112L60.2213 146.128C57.8346 146.56 55.1305 146.598 53.1119 146.61L52.985 145.48C53.6642 145.474 54.4259 145.468 55.232 145.455V143.119H56.6285ZM62.2652 139.653V143.233H63.7506V144.414H62.2652V148.248H60.818V139.653H62.2652ZM62.6334 149.759V150.901H54.6988V147.486H56.1207V149.759H62.6334Z" fill="#424242"/>
<path d="M84.2324 139.653V151.13H82.874V145.239H81.6426V150.597H80.3223V139.958H81.6426V144.097H82.874V139.653H84.2324ZM79.3447 141.101C79.3447 144.198 78.3672 146.864 75.1045 148.73L74.292 147.753C76.7358 146.337 77.7705 144.522 77.9736 142.23H74.8252V141.101H79.3447ZM94.8508 139.666V147.956H93.4289V139.666H94.8508ZM95.1682 149.759V150.901H87.259V147.118H88.6809V149.759H95.1682ZM88.592 140.415C90.3313 140.415 91.677 141.621 91.677 143.284C91.677 144.985 90.3313 146.166 88.592 146.166C86.84 146.166 85.4943 144.985 85.4943 143.284C85.4943 141.621 86.84 140.415 88.592 140.415ZM88.592 141.646C87.6145 141.646 86.8654 142.294 86.8781 143.284C86.8654 144.3 87.6145 144.935 88.592 144.935C89.5441 144.935 90.2932 144.3 90.2932 143.284C90.2932 142.294 89.5441 141.646 88.592 141.646ZM105.812 139.653V146.471H104.403V143.665H102.448V142.51H104.403V139.653H105.812ZM101.927 146.763C104.365 146.763 105.85 147.562 105.85 148.946C105.85 150.33 104.365 151.13 101.927 151.13C99.5023 151.13 98.017 150.33 98.0297 148.946C98.017 147.562 99.5023 146.763 101.927 146.763ZM101.927 147.842C100.328 147.842 99.4262 148.223 99.4262 148.946C99.4262 149.657 100.328 150.038 101.927 150.038C103.527 150.038 104.441 149.657 104.441 148.946C104.441 148.223 103.527 147.842 101.927 147.842ZM100.416 141.621C100.416 143.018 101.343 144.427 103.121 145.023L102.41 146.141C101.134 145.709 100.226 144.833 99.7309 143.754C99.223 144.979 98.2646 145.957 96.8998 146.445L96.1635 145.328C98.0043 144.693 98.9818 143.145 98.9818 141.634V141.545H96.5951V140.402H102.79V141.545H100.416V141.621ZM117.598 148.591V149.746H107.112V148.591H111.631V146.356H108.267V140.415H109.676V142.294H114.996V140.415H116.405V146.356H113.028V148.591H117.598ZM109.676 145.214H114.996V143.424H109.676V145.214ZM127.645 139.653V151.143H126.236V145.277H124.014V144.135H126.236V139.653H127.645ZM122.212 143.297C122.199 145.036 123.24 146.89 125.055 147.689L124.294 148.769C122.98 148.21 122.028 147.061 121.526 145.684C121.018 147.144 120.073 148.369 118.759 148.959L117.997 147.867C119.787 147.055 120.803 145.1 120.803 143.297V142.7H118.34V141.57H120.815V139.895H122.224V141.57H124.624V142.7H122.212V143.297ZM138.492 139.653V151.143H137.096V139.653H138.492ZM134.963 140.656V144.96H131.015V147.271C132.824 147.258 134.385 147.169 136.169 146.864L136.296 148.02C134.341 148.362 132.627 148.426 130.57 148.426H129.567V143.843H133.528V141.799H129.555V140.656H134.963ZM145.162 146.737C147.536 146.737 148.996 147.537 149.009 148.921C148.996 150.317 147.536 151.13 145.162 151.13C142.763 151.13 141.278 150.317 141.278 148.921C141.278 147.537 142.763 146.737 145.162 146.737ZM145.162 147.842C143.588 147.842 142.687 148.21 142.687 148.921C142.687 149.632 143.588 150.013 145.162 150.013C146.737 150.013 147.613 149.632 147.613 148.921C147.613 148.21 146.737 147.842 145.162 147.842ZM148.895 139.653V142.396H150.494V143.576H148.895V146.458H147.486V139.653H148.895ZM141.633 140.377V141.926H144.312V140.377H145.708V145.734H140.237V140.377H141.633ZM141.633 144.617H144.312V143.03H141.633V144.617ZM157.558 140.872V141.989H155.108C155.114 143.265 156.117 144.516 157.952 144.998L157.291 146.103C155.952 145.734 154.975 144.947 154.435 143.932C153.914 145.042 152.937 145.912 151.566 146.318L150.906 145.239C152.715 144.693 153.692 143.354 153.699 141.989H151.248V140.872H153.699V139.615H155.121V140.872H157.558ZM160.313 139.666V146.407H158.891V139.666H160.313ZM160.313 146.928V150.99H152.696V146.928H160.313ZM154.092 148.058V149.848H158.929V148.058H154.092Z" fill="#424242"/>
<path opacity="0.902" d="M32 191.471C37.5232 191.471 42 187.784 42 183.236C42 178.687 37.5232 175 32 175C26.4768 175 22 178.687 22 183.236C22 186.047 23.7116 188.53 26.3226 190.016L25.2597 194.424C25.16 194.832 25.5701 195.156 25.8847 194.921L30.5979 191.391C31.0563 191.444 31.5241 191.471 32 191.471Z" fill="#666666"/>
<path d="M76.0416 175H67.9574C66.3778 175.002 64.8634 175.63 63.7466 176.747C62.6297 177.864 62.0016 179.379 62 180.958V189.043C62.0019 190.622 62.6302 192.137 63.7473 193.253C64.8643 194.37 66.3788 194.998 67.9584 195H76.0426C77.6222 194.998 79.1366 194.37 80.2534 193.253C81.3703 192.136 81.9984 190.621 82 189.042V180.957C81.9981 179.378 81.3698 177.863 80.2527 176.747C79.1357 175.63 77.6212 175.002 76.0416 175V175ZM79.9885 189.042C79.9885 189.56 79.8864 190.073 79.688 190.552C79.4897 191.031 79.199 191.466 78.8325 191.832C78.466 192.199 78.0308 192.49 77.552 192.688C77.0731 192.886 76.5599 192.988 76.0416 192.988H67.9574C66.9108 192.988 65.9072 192.572 65.1672 191.832C64.4272 191.092 64.0115 190.088 64.0115 189.042V180.957C64.0118 179.911 64.4277 178.907 65.1679 178.167C65.9081 177.427 66.9118 177.012 67.9584 177.012H76.0426C77.0892 177.012 78.0928 177.428 78.8328 178.168C79.5728 178.908 79.9885 179.912 79.9885 180.958V189.043V189.042Z" fill="#666666"/>
<path d="M71.982 179.819C70.6134 179.821 69.3015 180.366 68.3339 181.334C67.3663 182.302 66.8219 183.614 66.82 184.982C66.8216 186.351 67.366 187.663 68.3339 188.631C69.3018 189.6 70.6141 190.144 71.983 190.146C73.3521 190.145 74.6647 189.6 75.6328 188.632C76.6008 187.664 77.1454 186.351 77.147 184.982C77.1449 183.613 76.5999 182.301 75.6317 181.333C74.6634 180.366 73.3509 179.821 71.982 179.82V179.819ZM71.982 188.138C71.1452 188.138 70.3428 187.806 69.7511 187.214C69.1594 186.622 68.827 185.82 68.827 184.983C68.827 184.146 69.1594 183.344 69.7511 182.752C70.3428 182.16 71.1452 181.828 71.982 181.828C72.8188 181.828 73.6213 182.16 74.2129 182.752C74.8046 183.344 75.137 184.146 75.137 184.983C75.137 185.82 74.8046 186.622 74.2129 187.214C73.6213 187.806 72.8188 188.138 71.982 188.138Z" fill="#666666"/>
<path d="M77.156 181.095C77.8392 181.095 78.393 180.541 78.393 179.858C78.393 179.175 77.8392 178.621 77.156 178.621C76.4728 178.621 75.919 179.175 75.919 179.858C75.919 180.541 76.4728 181.095 77.156 181.095Z" fill="#666666"/>
<path d="M117.846 177.501H106.154C103.859 177.501 102 179.472 102 181.903V188.097C102 190.528 103.86 192.5 106.154 192.5H117.846C120.141 192.5 122 190.528 122 188.097V181.903C122 179.472 120.14 177.5 117.846 177.5V177.501ZM115.037 185.301L109.568 188.066C109.535 188.083 109.498 188.091 109.461 188.089C109.424 188.087 109.388 188.075 109.357 188.054C109.325 188.033 109.3 188.003 109.281 187.969C109.263 187.934 109.254 187.895 109.254 187.855V182.154C109.254 182.114 109.264 182.075 109.283 182.041C109.301 182.006 109.328 181.977 109.36 181.956C109.391 181.936 109.428 181.924 109.465 181.922C109.502 181.921 109.539 181.929 109.572 181.947L115.042 184.884C115.078 184.903 115.109 184.934 115.13 184.971C115.151 185.008 115.162 185.051 115.162 185.095C115.161 185.138 115.149 185.181 115.127 185.217C115.105 185.254 115.074 185.283 115.037 185.302V185.301Z" fill="#666666"/>
</svg>
