<svg width="181" height="181" viewBox="0 0 181 181" fill="none" xmlns="http://www.w3.org/2000/svg">
<circle cx="140.245" cy="139.462" r="2.31198" fill="#4CAF50" stroke="#4CAF50" stroke-width="0.0763804"/>
<path d="M154.276 46.6303C154.276 48.9712 152.378 50.8689 150.037 50.8689C147.696 50.8689 145.799 48.9712 145.799 46.6303C145.799 44.2893 147.696 42.3916 150.037 42.3916C152.378 42.3916 154.276 44.2893 154.276 46.6303Z" fill="#4CAF50" stroke="#4CAF50" stroke-width="0.140031"/>
<circle cx="41.9298" cy="34.8794" r="6.5506" fill="#4CAF50" stroke="#4CAF50" stroke-width="0.216411"/>
<path d="M37.564 120.269C37.564 122.184 36.0114 123.737 34.096 123.737C32.1807 123.737 30.6281 122.184 30.6281 120.269C30.6281 118.353 32.1807 116.801 34.096 116.801C36.0114 116.801 37.564 118.353 37.564 120.269Z" fill="#4CAF50" stroke="#4CAF50" stroke-width="0.114571"/>
<circle cx="68.9569" cy="150.429" r="2.31198" fill="#4CAF50" stroke="#4CAF50" stroke-width="0.0763804"/>
<path d="M112.024 146.121C112.024 146.759 111.506 147.277 110.868 147.277C110.23 147.277 109.712 146.759 109.712 146.121C109.712 145.482 110.23 144.965 110.868 144.965C111.506 144.965 112.024 145.482 112.024 146.121Z" fill="#4CAF50" stroke="#4CAF50" stroke-width="0.0381902"/>
<path d="M145.71 103.034C145.71 103.673 145.192 104.19 144.554 104.19C143.915 104.19 143.398 103.673 143.398 103.034C143.398 102.396 143.915 101.878 144.554 101.878C145.192 101.878 145.71 102.396 145.71 103.034Z" fill="#4CAF50" stroke="#4CAF50" stroke-width="0.0381902"/>
<path d="M101.84 30.9625C101.84 31.6009 101.323 32.1185 100.684 32.1185C100.046 32.1185 99.5281 31.6009 99.5281 30.9625C99.5281 30.3241 100.046 29.8065 100.684 29.8065C101.323 29.8065 101.84 30.3241 101.84 30.9625Z" fill="#4CAF50" stroke="#4CAF50" stroke-width="0.0381902"/>
<path d="M28.9849 79.5326C28.9849 80.171 28.4673 80.6886 27.8289 80.6886C27.1905 80.6886 26.6729 80.171 26.6729 79.5326C26.6729 78.8941 27.1905 78.3766 27.8289 78.3766C28.4673 78.3766 28.9849 78.8941 28.9849 79.5326Z" fill="#4CAF50" stroke="#4CAF50" stroke-width="0.0381902"/>
<circle cx="93.2416" cy="90.1083" r="46.2395" fill="#4CAF50" stroke="#4CAF50" stroke-width="1.52761"/>
<rect x="76.7709" y="73.6376" width="32.9415" height="32.9415" rx="14.5123" fill="white" stroke="#4CAF50" stroke-width="1.52761"/>
<path d="M99.5088 85.5495L90.8916 94.0713L86.9746 90.1978" stroke="#4CAF50" stroke-width="6.98335" stroke-linecap="round" stroke-linejoin="round"/>
</svg>
