<svg width="16" height="16" viewBox="0 0 16 16" fill="none" xmlns="http://www.w3.org/2000/svg">
<path d="M13.625 8C13.625 11.1066 11.1066 13.625 8 13.625C4.8934 13.625 2.375 11.1066 2.375 8C2.375 4.8934 4.8934 2.375 8 2.375C11.1066 2.375 13.625 4.8934 13.625 8Z" stroke="#D4380D" stroke-width="0.75"/>
<path fill-rule="evenodd" clip-rule="evenodd" d="M8 4.60938C7.38239 4.60938 6.91251 5.2266 7.01378 5.90486L7.42292 8.64513C7.46982 8.95929 7.71393 9.1896 8 9.1896C8.28607 9.1896 8.53018 8.95929 8.57709 8.64512L8.98622 5.90485C9.08749 5.2266 8.61761 4.60938 8 4.60938ZM8 11.3896C8.41421 11.3896 8.75 11.0539 8.75 10.6396C8.75 10.2254 8.41421 9.88965 8 9.88965C7.58579 9.88965 7.25 10.2254 7.25 10.6396C7.25 11.0539 7.58579 11.3896 8 11.3896Z" fill="#D4380D"/>
</svg>
