<svg width="27" height="26" viewBox="0 0 27 26" fill="none" xmlns="http://www.w3.org/2000/svg">
<path d="M23.554 19.9593C23.1772 20.8298 22.7312 21.6311 22.2144 22.3679C21.51 23.3722 20.9333 24.0674 20.4888 24.4534C19.7997 25.0871 19.0615 25.4116 18.2709 25.4301C17.7034 25.4301 17.019 25.2686 16.2223 24.941C15.423 24.6149 14.6884 24.4534 14.0168 24.4534C13.3124 24.4534 12.5569 24.6149 11.7488 24.941C10.9395 25.2686 10.2875 25.4393 9.78907 25.4562C9.03099 25.4885 8.27536 25.1547 7.52111 24.4534C7.03971 24.0335 6.43758 23.3137 5.71625 22.294C4.94232 21.2051 4.30604 19.9424 3.80757 18.5028C3.27372 16.9479 3.0061 15.4422 3.0061 13.9844C3.0061 12.3146 3.36692 10.8744 4.08964 9.66752C4.65763 8.69811 5.41326 7.93341 6.35898 7.37203C7.30471 6.81065 8.32657 6.52458 9.42703 6.50628C10.0292 6.50628 10.8188 6.69253 11.8 7.05858C12.7785 7.42586 13.4068 7.61211 13.6823 7.61211C13.8882 7.61211 14.5862 7.39433 15.7694 6.96015C16.8883 6.55749 17.8326 6.39077 18.6062 6.45645C20.7026 6.62563 22.2775 7.45201 23.3249 8.94081C21.45 10.0768 20.5226 11.6679 20.5411 13.709C20.558 15.2988 21.1347 16.6218 22.2683 17.6723C22.782 18.1598 23.3556 18.5367 23.9939 18.8043C23.8555 19.2057 23.7094 19.5902 23.554 19.9593ZM18.7462 1.04016C18.7462 2.28628 18.2909 3.44977 17.3835 4.52669C16.2884 5.80694 14.9639 6.54673 13.5275 6.42999C13.5092 6.2805 13.4986 6.12316 13.4986 5.95782C13.4986 4.76155 14.0194 3.4813 14.9442 2.43453C15.4059 1.90453 15.9931 1.46384 16.7052 1.11229C17.4158 0.765994 18.0879 0.574483 18.72 0.541687C18.7385 0.708273 18.7462 0.87487 18.7462 1.04015V1.04016Z" fill="white"/>
</svg>
