<svg width="16" height="17" viewBox="0 0 16 17" fill="none" xmlns="http://www.w3.org/2000/svg">
<path d="M8 2C4.41031 2 1.5 4.91031 1.5 8.5C1.5 12.0897 4.41031 15 8 15C11.5897 15 14.5 12.0897 14.5 8.5C14.5 4.91031 11.5897 2 8 2ZM11 9.5H8C7.86739 9.5 7.74021 9.44732 7.64645 9.35355C7.55268 9.25979 7.5 9.13261 7.5 9V4.5C7.5 4.36739 7.55268 4.24021 7.64645 4.14645C7.74021 4.05268 7.86739 4 8 4C8.13261 4 8.25979 4.05268 8.35355 4.14645C8.44732 4.24021 8.5 4.36739 8.5 4.5V8.5H11C11.1326 8.5 11.2598 8.55268 11.3536 8.64645C11.4473 8.74021 11.5 8.86739 11.5 9C11.5 9.13261 11.4473 9.25979 11.3536 9.35355C11.2598 9.44732 11.1326 9.5 11 9.5Z" fill="#AAAAAA"/>
</svg>
