<svg width="26" height="26" viewBox="0 0 26 26" fill="none" xmlns="http://www.w3.org/2000/svg">
<path fill-rule="evenodd" clip-rule="evenodd" d="M26 13.2955C26 12.3737 25.9156 11.4873 25.7588 10.6364H13.2653V15.6651H20.4044C20.0969 17.2901 19.1623 18.6669 17.7574 19.5887V22.8505H22.0445C24.5529 20.5873 26 17.2546 26 13.2955Z" fill="#4285F4"/>
<path fill-rule="evenodd" clip-rule="evenodd" d="M13.2653 26C16.847 26 19.8497 24.836 22.0445 22.8505L17.7574 19.5887C16.5696 20.3687 15.0501 20.8295 13.2653 20.8295C9.81031 20.8295 6.88591 18.5427 5.84277 15.47H1.41095V18.8381C3.5937 23.0868 8.07979 26 13.2653 26Z" fill="#34A853"/>
<path fill-rule="evenodd" clip-rule="evenodd" d="M5.84277 15.47C5.57747 14.69 5.42672 13.8569 5.42672 13C5.42672 12.1432 5.57746 11.3101 5.84277 10.5301V7.16188H1.41095C0.512523 8.91687 0 10.9023 0 13C0 15.0978 0.512529 17.0831 1.41095 18.8381L5.84277 15.47Z" fill="#FBBC05"/>
<path fill-rule="evenodd" clip-rule="evenodd" d="M13.2653 5.17045C15.2129 5.17045 16.9615 5.82636 18.3363 7.11454L22.141 3.3859C19.8437 1.28818 16.8409 0 13.2653 0C8.07979 0 3.59369 2.91324 1.41095 7.16188L5.84277 10.5301C6.8859 7.45733 9.81031 5.17045 13.2653 5.17045Z" fill="#D4380D"/>
</svg>
