<svg width="29" height="28" viewBox="0 0 29 28" fill="none" xmlns="http://www.w3.org/2000/svg">
<g clip-path="url(#clip0_2030_11666)">
<path d="M15.5461 3.56709C15.3496 3.16886 14.944 2.91675 14.5 2.91675C14.0559 2.91675 13.6503 3.16886 13.4538 3.56709L10.5031 9.5458L3.90519 10.5045C3.46572 10.5684 3.10061 10.8762 2.96338 11.2986C2.82616 11.7209 2.9406 12.1845 3.2586 12.4945L8.03289 17.1483L6.90583 23.7195C6.83076 24.1572 7.01069 24.5996 7.36996 24.8606C7.72923 25.1216 8.20554 25.156 8.59861 24.9494L14.5 21.8469L20.4013 24.9494C20.7944 25.156 21.2707 25.1216 21.6299 24.8606C21.9892 24.5996 22.1691 24.1572 22.0941 23.7195L20.967 17.1483L25.7413 12.4945C26.0593 12.1845 26.1737 11.7209 26.0365 11.2986C25.8993 10.8762 25.5342 10.5684 25.0947 10.5045L18.4968 9.5458L15.5461 3.56709Z" fill="#E8E8E8"/>
</g>
<defs>
<clipPath id="clip0_2030_11666">
<rect width="23.3333" height="23.3333" fill="white" transform="translate(2.8335 2.33337)"/>
</clipPath>
</defs>
</svg>
