<svg width="24" height="24" viewBox="0 0 24 24" fill="none" xmlns="http://www.w3.org/2000/svg">
<path d="M3.92625 8.13784L10.9262 3.6833C11.5814 3.26639 12.4186 3.26639 13.0738 3.6833L20.0738 8.13784C20.6506 8.50496 21 9.14136 21 9.82516V19C21 20.1046 20.1046 21 19 21H5C3.89543 21 3 20.1046 3 19V9.82516C3 9.14136 3.34935 8.50496 3.92625 8.13784Z" fill="#4CAF50" stroke="#4CAF50" stroke-width="1.5" stroke-linecap="round" stroke-linejoin="round"/>
<path d="M9 22V15.25C9 14.6533 9.21071 14.081 9.58579 13.659C9.96086 13.2371 10.4696 13 11 13H13C13.5304 13 14.0391 13.2371 14.4142 13.659C14.7893 14.081 15 14.6533 15 15.25V22" stroke="white" stroke-width="1.5" stroke-linecap="round" stroke-linejoin="round"/>
</svg>
