<svg width="47" height="24" viewBox="0 0 47 24" fill="none" xmlns="http://www.w3.org/2000/svg">
<rect width="47" height="24" rx="12" fill="#FF3227"/>
<path d="M11.2884 17V7.80859H12.9388V11.7061H17.2171V7.80859H18.8802V17H17.2171V13.0898H12.9388V17H11.2884ZM28.4575 12.4043C28.4575 15.375 26.6548 17.127 24.2427 17.127C21.8306 17.127 20.0278 15.3623 20.0278 12.4043C20.0278 9.43359 21.8306 7.68164 24.2427 7.68164C26.6548 7.68164 28.4575 9.43359 28.4575 12.4043ZM26.7944 12.4043C26.7944 10.3096 25.7407 9.16699 24.2427 9.16699C22.7446 9.16699 21.6909 10.3096 21.6909 12.4043C21.6909 14.499 22.7446 15.6416 24.2427 15.6416C25.7407 15.6416 26.7944 14.499 26.7944 12.4043ZM28.7927 9.19238V7.80859H36.1179V9.19238H33.2868V17H31.6364V9.19238H28.7927Z" fill="white"/>
</svg>
