<svg width="16" height="17" viewBox="0 0 16 17" fill="none" xmlns="http://www.w3.org/2000/svg">
<path d="M7.99998 1.83325C5.42369 1.83325 3.33331 3.75319 3.33331 6.11897C3.33331 9.92849 7.99998 15.1666 7.99998 15.1666C7.99998 15.1666 12.6666 9.92849 12.6666 6.11897C12.6666 3.75319 10.5763 1.83325 7.99998 1.83325ZM7.99998 8.49992C7.63079 8.49992 7.26989 8.38821 6.96292 8.17891C6.65594 7.96961 6.41669 7.67213 6.2754 7.32408C6.13412 6.97603 6.09715 6.59304 6.16918 6.22356C6.24121 5.85407 6.41899 5.51467 6.68005 5.24829C6.94111 4.9819 7.27371 4.80049 7.63581 4.72699C7.99791 4.6535 8.37323 4.69122 8.71432 4.83539C9.05541 4.97955 9.34694 5.22369 9.55206 5.53693C9.75717 5.85016 9.86665 6.21843 9.86665 6.59516C9.86611 7.10016 9.66927 7.58433 9.31932 7.94142C8.96937 8.29851 8.49488 8.49937 7.99998 8.49992Z" fill="#AAAAAA"/>
</svg>
