<svg width="49" height="24" viewBox="0 0 49 24" fill="none" xmlns="http://www.w3.org/2000/svg">
<rect width="49" height="24" rx="12" fill="#FFD139"/>
<path d="M18.5091 7.80859V17H17.0364L12.6819 10.7158H12.6058V17H10.9554V7.80859H12.4534L16.7825 14.0928H16.8714V7.80859H18.5091ZM19.8853 17V7.80859H25.8647V9.19238H21.5356V11.7061H25.5474V13.0898H21.5356V15.6035H25.8901V17H19.8853ZM29.069 17L26.4792 7.80859H28.2565L29.9196 14.5752H30.0085L31.7731 7.80859H33.3981L35.1755 14.5879H35.2517L36.9147 7.80859H38.6921L36.1022 17H34.4646L32.6237 10.5381H32.5603L30.7067 17H29.069Z" fill="white"/>
</svg>
