<svg width="57" height="57" viewBox="0 0 57 57" fill="none" xmlns="http://www.w3.org/2000/svg">
<path fill-rule="evenodd" clip-rule="evenodd" d="M5.75 28.5C5.75 15.9398 15.9398 5.75 28.5 5.75C41.0602 5.75 51.25 15.9398 51.25 28.5C51.25 41.0602 41.0602 51.25 28.5 51.25C15.9398 51.25 5.75 41.0602 5.75 28.5ZM28.5 9.25C17.8727 9.25 9.25 17.8727 9.25 28.5C9.25 39.1273 17.8727 47.75 28.5 47.75C39.1273 47.75 47.75 39.1273 47.75 28.5C47.75 17.8727 39.1273 9.25 28.5 9.25Z" fill="#D0D0D0"/>
<path fill-rule="evenodd" clip-rule="evenodd" d="M26.2069 15.7401C26.1272 14.3797 27.3247 13.4062 28.5 13.4062C29.6753 13.4062 30.8728 14.3797 30.7931 15.7401L30.2206 31.0842C30.2136 31.5275 30.0332 31.9513 29.7168 32.2653C29.3941 32.5857 28.9564 32.7656 28.5 32.7656C28.0436 32.7656 27.6059 32.5857 27.2832 32.2653C26.9668 31.9513 26.7864 31.5275 26.7794 31.0842L26.2069 15.7401ZM28.5225 15.7007C28.5225 15.7007 28.5224 15.7006 28.5222 15.7003C28.5224 15.7005 28.5225 15.7007 28.5225 15.7007ZM28.4775 15.7007C28.4775 15.7007 28.4776 15.7005 28.4778 15.7003C28.4776 15.7006 28.4775 15.7007 28.4775 15.7007Z" fill="#D0D0D0"/>
<path fill-rule="evenodd" clip-rule="evenodd" d="M26.3125 38.4531C26.3125 37.1846 27.3164 36.1562 28.5547 36.1562C29.793 36.1562 30.7969 37.1846 30.7969 38.4531C30.7969 39.7217 29.793 40.75 28.5547 40.75C27.3164 40.75 26.3125 39.7217 26.3125 38.4531Z" fill="#D0D0D0"/>
</svg>
