<svg width="20" height="20" viewBox="0 0 20 20" fill="none" xmlns="http://www.w3.org/2000/svg">
<path d="M16.1871 3.81283C15.3761 2.99375 14.4112 2.343 13.3478 1.89795C12.2845 1.45291 11.1438 1.22235 9.99108 1.21951C8.83839 1.21667 7.6965 1.44162 6.63101 1.88142C5.56552 2.32123 4.59743 2.96722 3.78236 3.7823C2.96728 4.59737 2.32129 5.56546 1.88148 6.63095C1.44168 7.69644 1.21673 8.83833 1.21957 9.99102C1.22241 11.1437 1.45297 12.2845 1.89801 13.3478C2.34306 14.4111 2.99381 15.376 3.81289 16.187C4.62394 17.0061 5.58884 17.6569 6.65215 18.1019C7.71547 18.547 8.85623 18.7775 10.0089 18.7804C11.1616 18.7832 12.3035 18.5583 13.369 18.1185C14.4345 17.6786 15.4026 17.0327 16.2176 16.2176C17.0327 15.4025 17.6787 14.4344 18.1185 13.3689C18.5583 12.3034 18.7833 11.1615 18.7804 10.0089C18.7776 8.85617 18.547 7.7154 18.102 6.65209C17.6569 5.58878 17.0062 4.62388 16.1871 3.81283ZM7.1875 8.12494C7.37292 8.12494 7.55418 8.17992 7.70835 8.28294C7.86252 8.38595 7.98268 8.53237 8.05364 8.70367C8.12459 8.87498 8.14316 9.06348 8.10699 9.24534C8.07081 9.42719 7.98152 9.59424 7.85041 9.72535C7.7193 9.85646 7.55225 9.94575 7.3704 9.98193C7.18854 10.0181 7.00004 9.99953 6.82873 9.92858C6.65743 9.85762 6.51101 9.73746 6.408 9.58329C6.30498 9.42911 6.25 9.24786 6.25 9.06244C6.24969 8.93924 6.27373 8.81719 6.32073 8.70331C6.36774 8.58943 6.43678 8.48595 6.5239 8.39884C6.61101 8.31172 6.71449 8.24268 6.82837 8.19567C6.94225 8.14867 7.0643 8.12463 7.1875 8.12494ZM13.7371 12.2722C13.2684 13.8464 11.7762 14.9999 10.002 14.9999C8.22773 14.9999 6.73555 13.8464 6.26289 12.2722C6.24967 12.2253 6.24759 12.176 6.25682 12.1282C6.26605 12.0804 6.28634 12.0354 6.31605 11.9968C6.34576 11.9582 6.38409 11.927 6.42796 11.9059C6.47184 11.8847 6.52005 11.8741 6.56875 11.8749H13.4316C13.4803 11.8742 13.5285 11.8849 13.5723 11.906C13.6161 11.9272 13.6544 11.9583 13.6841 11.9969C13.7137 12.0355 13.734 12.0805 13.7432 12.1283C13.7524 12.1761 13.7503 12.2254 13.7371 12.2722ZM12.8125 9.99994C12.6271 9.99994 12.4458 9.94496 12.2917 9.84194C12.1375 9.73893 12.0173 9.59251 11.9464 9.4212C11.8754 9.2499 11.8568 9.0614 11.893 8.87954C11.9292 8.69768 12.0185 8.53064 12.1496 8.39953C12.2807 8.26841 12.4477 8.17913 12.6296 8.14295C12.8115 8.10678 13 8.12534 13.1713 8.1963C13.3426 8.26726 13.489 8.38742 13.592 8.54159C13.695 8.69576 13.75 8.87702 13.75 9.06244C13.7503 9.18564 13.7263 9.30769 13.6793 9.42157C13.6323 9.53545 13.5632 9.63892 13.4761 9.72604C13.389 9.81316 13.2855 9.8822 13.1716 9.9292C13.0577 9.97621 12.9357 10.0002 12.8125 9.99994Z" fill="#28CAD9"/>
</svg>
