<svg width="20" height="20" viewBox="0 0 20 20" fill="none" xmlns="http://www.w3.org/2000/svg">
<path d="M4.75467 1.25001C4.72875 1.24977 4.70318 1.25598 4.68026 1.26809C4.65733 1.2802 4.63779 1.29782 4.62337 1.31936C4.60896 1.34091 4.60013 1.3657 4.59768 1.39151C4.59524 1.41731 4.59925 1.44332 4.60936 1.46719L4.6992 1.6793L6.28905 5.38633C6.29985 5.41155 6.3171 5.43347 6.33907 5.4499C6.36103 5.46634 6.38694 5.4767 6.41417 5.47994C6.44141 5.48319 6.46903 5.47921 6.49424 5.4684C6.51945 5.45759 6.54137 5.44033 6.5578 5.41837L9.49217 1.50001C9.50958 1.47679 9.52019 1.44919 9.52279 1.42029C9.5254 1.39139 9.5199 1.36233 9.50693 1.33638C9.49395 1.31043 9.474 1.2886 9.44932 1.27334C9.42463 1.25809 9.39619 1.25001 9.36717 1.25001H4.75467Z" fill="#0085E4"/>
<path d="M16.4035 2.26801L14.791 6.03246C14.7809 6.05622 14.7768 6.08213 14.7791 6.10787C14.7815 6.1336 14.7901 6.15836 14.8044 6.17992C14.8186 6.20148 14.838 6.21917 14.8608 6.2314C14.8835 6.24364 14.909 6.25004 14.9348 6.25004H18.8801C18.908 6.25005 18.9353 6.24261 18.9593 6.2285C18.9834 6.21439 19.0032 6.19411 19.0167 6.16976C19.0303 6.14542 19.037 6.1179 19.0364 6.09005C19.0357 6.0622 19.0276 6.03503 19.0129 6.01137L16.6797 2.2473C16.6646 2.22307 16.6432 2.20343 16.6178 2.19051C16.5923 2.17759 16.5638 2.17189 16.5354 2.17402C16.5069 2.17615 16.4796 2.18604 16.4563 2.20261C16.4331 2.21918 16.4148 2.2418 16.4035 2.26801Z" fill="#0085E4"/>
<path d="M3.32028 2.24891L0.987863 6.01141C0.973167 6.03508 0.965067 6.06225 0.9644 6.0901C0.963734 6.11795 0.970525 6.14547 0.984071 6.16981C0.997617 6.19416 1.01743 6.21443 1.04144 6.22855C1.06546 6.24266 1.09282 6.2501 1.12068 6.25009H5.06599C5.09184 6.25006 5.11729 6.24361 5.14004 6.23132C5.16279 6.21904 5.18214 6.2013 5.19635 6.1797C5.21056 6.15809 5.21918 6.1333 5.22145 6.10755C5.22372 6.08179 5.21956 6.05587 5.20935 6.03212L3.59372 2.26962C3.58217 2.24406 3.56395 2.22208 3.54097 2.20599C3.51799 2.18991 3.49111 2.1803 3.46314 2.17818C3.43517 2.17606 3.40715 2.18151 3.38201 2.19396C3.35688 2.2064 3.33556 2.22539 3.32028 2.24891Z" fill="#0085E4"/>
<path d="M15.3621 1.25H10.4617C10.4476 1.24991 10.4337 1.25378 10.4216 1.26116C10.4096 1.26855 10.3998 1.27916 10.3935 1.2918C10.3871 1.30444 10.3845 1.3186 10.3858 1.33269C10.387 1.34677 10.3922 1.36021 10.4008 1.37149L13.5226 5.53008C13.5306 5.54076 13.5413 5.54915 13.5535 5.55441C13.5658 5.55966 13.5792 5.5616 13.5924 5.56001C13.6056 5.55843 13.6182 5.55338 13.6289 5.54538C13.6395 5.53738 13.6479 5.52672 13.6531 5.51445L15.2969 1.67969L15.4297 1.35391C15.4344 1.34273 15.4363 1.33058 15.4352 1.3185C15.4342 1.30642 15.4302 1.29478 15.4237 1.28456C15.4172 1.27435 15.4083 1.26587 15.3977 1.25985C15.3872 1.25383 15.3754 1.25045 15.3633 1.25H15.3621Z" fill="#0085E4"/>
<path d="M9.33591 17.5L5.84255 7.59805C5.8323 7.56929 5.81338 7.54443 5.7884 7.52687C5.76343 7.50931 5.73363 7.49992 5.7031 7.5H1.00388C0.97666 7.49992 0.949964 7.50749 0.926835 7.52185C0.903706 7.5362 0.885075 7.55677 0.873064 7.5812C0.861053 7.60563 0.856145 7.63294 0.858901 7.66002C0.861656 7.6871 0.871963 7.71287 0.888647 7.73438L9.32615 18.6645C9.35471 18.7014 9.39546 18.7271 9.44115 18.7369C9.48685 18.7467 9.53454 18.74 9.57576 18.718C9.61721 18.6962 9.64945 18.6602 9.66659 18.6166C9.68372 18.573 9.68462 18.5247 9.66912 18.4805L9.33591 17.5Z" fill="#0085E4"/>
<path d="M18.9961 7.5H14.2969C14.2665 7.49999 14.2369 7.50942 14.2121 7.52699C14.1873 7.54456 14.1686 7.56939 14.1586 7.59805L10.3227 18.4637C10.3065 18.5093 10.3072 18.5591 10.3245 18.6043C10.3419 18.6495 10.3747 18.687 10.4172 18.7102C10.4597 18.7332 10.509 18.7403 10.5562 18.7304C10.6035 18.7205 10.6458 18.694 10.6754 18.6559L19.1113 7.73438C19.128 7.71287 19.1383 7.6871 19.1411 7.66002C19.1438 7.63294 19.1389 7.60563 19.1269 7.5812C19.1149 7.55677 19.0963 7.5362 19.0731 7.52185C19.05 7.50749 19.0233 7.49992 18.9961 7.5Z" fill="#0085E4"/>
<path d="M10.125 3.08325L12.3125 6.00005C12.3299 6.02326 12.3405 6.05087 12.3431 6.07977C12.3457 6.10867 12.3402 6.13772 12.3272 6.16368C12.3143 6.18963 12.2943 6.21146 12.2696 6.22671C12.2449 6.24197 12.2165 6.25005 12.1875 6.25005H7.81248C7.78346 6.25005 7.75502 6.24197 7.73033 6.22671C7.70565 6.21146 7.6857 6.18963 7.67272 6.16368C7.65975 6.13772 7.65425 6.10867 7.65686 6.07977C7.65947 6.05087 7.67007 6.02326 7.68748 6.00005L9.87498 3.08325C9.88953 3.06385 9.90841 3.0481 9.9301 3.03725C9.9518 3.0264 9.97572 3.02075 9.99998 3.02075C10.0242 3.02075 10.0482 3.0264 10.0699 3.03725C10.0916 3.0481 10.1104 3.06385 10.125 3.08325ZM9.85154 15.2047L7.20701 7.70825C7.19871 7.6847 7.19617 7.65949 7.19961 7.63475C7.20306 7.61001 7.21238 7.58646 7.2268 7.56607C7.24123 7.54568 7.26033 7.52904 7.28251 7.51755C7.30469 7.50607 7.3293 7.50006 7.35428 7.50005H12.6457C12.6707 7.50006 12.6953 7.50607 12.7174 7.51755C12.7396 7.52904 12.7587 7.54568 12.7732 7.56607C12.7876 7.58646 12.7969 7.61001 12.8003 7.63475C12.8038 7.65949 12.8013 7.6847 12.7929 7.70825L10.1472 15.2047C10.1365 15.2352 10.1165 15.2615 10.0901 15.2801C10.0638 15.2988 10.0323 15.3088 9.99998 15.3088C9.96769 15.3088 9.9362 15.2988 9.90983 15.2801C9.88346 15.2615 9.8635 15.2352 9.85271 15.2047H9.85154Z" fill="#0085E4"/>
</svg>
