<svg width="24" height="24" viewBox="0 0 24 24" fill="none" xmlns="http://www.w3.org/2000/svg">
<path d="M10.5 18C14.6421 18 18 14.6421 18 10.5C18 6.35786 14.6421 3 10.5 3C6.35786 3 3 6.35786 3 10.5C3 14.6421 6.35786 18 10.5 18Z" fill="#4CAF50" stroke="#4CAF50" stroke-width="1.5" stroke-miterlimit="10"/>
<path d="M20.4697 21.5303C20.7626 21.8232 21.2374 21.8232 21.5303 21.5303C21.8232 21.2374 21.8232 20.7626 21.5303 20.4697L20.4697 21.5303ZM15.4697 16.5303L20.4697 21.5303L21.5303 20.4697L16.5303 15.4697L15.4697 16.5303Z" fill="#4CAF50"/>
<path d="M6.71427 8C5.71429 9 5.65221 12.3 7.25221 13.5" stroke="white" stroke-linecap="round"/>
<circle cx="9" cy="15" r="0.5" fill="white"/>
</svg>
