<svg width="37" height="24" viewBox="0 0 37 24" fill="none" xmlns="http://www.w3.org/2000/svg">
<rect width="37" height="24" rx="12" fill="#53E3C6"/>
<path d="M16.7201 7.80859H18.3832V13.8135C18.3832 15.7812 16.8852 17.1396 14.6508 17.1396C12.4037 17.1396 10.9184 15.7812 10.9184 13.8135V7.80859H12.5688V13.6738C12.5688 14.8291 13.3813 15.667 14.6508 15.667C15.9203 15.667 16.7201 14.8291 16.7201 13.6738V7.80859ZM19.7594 17V7.80859H23.2125C25.3199 7.80859 26.4498 9.09082 26.4498 10.8555C26.4498 12.6201 25.3072 13.8896 23.1871 13.8896H21.4098V17H19.7594ZM21.4098 12.5312H22.9586C24.2027 12.5312 24.7613 11.833 24.7613 10.8555C24.7613 9.86523 24.2027 9.19238 22.9586 9.19238H21.4098V12.5312Z" fill="white"/>
</svg>
